<?xml version="1.0" encoding="utf-8"?>
<!-- Generator: Adobe Illustrator 19.0.1, SVG Export Plug-In . SVG Version: 6.00 Build 0)  -->
<svg version="1.1" id="Слой_1" xmlns="http://www.w3.org/2000/svg" xmlns:xlink="http://www.w3.org/1999/xlink" x="0px" y="0px"
	 viewBox="0 0 597.2 164.4" style="enable-background:new 0 0 597.2 164.4;" xml:space="preserve">
<style type="text/css">
	.st0{fill:#FFFFFF;}
	.st1{fill:#FF1F1F;}
</style>
<path class="st0" d="M261.3,3.4l-67.9,102.2h21.5l21.4-32.9H300l21.1,32.9h21.8L275.4,3.4H261.3z M246.2,57.5l22.2-34.2l21.9,34.2
	H246.2z"/>
<polygon class="st0" points="376.7,3.4 357.3,3.4 357.3,105.6 459.6,105.6 459.6,90.5 376.7,90.5 "/>
<path class="st0" d="M595.8,58.2c-1.2-3-3-5.6-5.6-7.8c-2.6-2.2-5.9-3.9-9.9-5.1c-4.1-1.2-9-1.8-14.8-1.8h-60.1
	c-8.5,0-12.8-3.1-12.8-9.5v-6.2c0-6.3,4.3-9.4,12.8-9.4h86.5V3.4h-86.5c-5.8,0-10.7,0.6-14.8,1.8c-4.1,1.2-7.4,2.9-10,5.1
	c-2.6,2.2-4.4,4.8-5.6,7.8c-1.2,3-1.7,6.3-1.7,10v6c0,3.7,0.6,7,1.7,10c1.2,3,3,5.6,5.6,7.8c2.5,2.2,5.9,3.9,10,5.1
	c4.1,1.2,9,1.8,14.8,1.8h60.1c8.5,0,12.8,3.1,12.8,9.4V81c0,6.3-4.3,9.4-12.8,9.4h-88.8v15.1h88.8c5.8,0,10.7-0.6,14.8-1.8
	c4.1-1.2,7.4-2.9,9.9-5.1c2.5-2.2,4.4-4.8,5.6-7.8c1.2-3,1.7-6.3,1.7-10V68.3C597.5,64.6,596.9,61.2,595.8,58.2z"/>
<path class="st1" d="M528,108.1c-5,1.1-10,2.2-15,3.3c-33.4,7-67.5,10.9-101.4,13.8c-20.3,1.7-40.8,2.7-61.2,3.4
	c-5.8,0.2-11.6,0.3-17.4,0.4c-1,0-1.7,0-2.5,0c12.9,0.3-13.7,0.3,0,0c-0.8,0-1.7,0-2.9,0c-12.4-0.2-24.7-0.7-37.1-1.2
	c-64.5-2.9-132.5-8.5-193.9-30C75,90.1,34.8,69.6,65.6,46.1c12-9.2,27.3-14.3,41.5-18.8c22.7-7.2,46.4-11.7,69.9-15.5
	c25.9-4.2,52.1-6.9,78.3-8.9l2-2.9c-47.3,1.6-94.4,5.3-141.1,13.1c-26.3,4.4-52.6,10.1-77.5,19.5c-13,4.9-30,11.9-36.7,25.1
	c-14.7,29,57.7,45.5,72.6,49.2c67.3,16.9,138.1,21,207.2,22.4c79.8,1.6,160.1,0.5,239.2-10.2c20.2-2.7,40.3-6.2,60.1-10.9L528,108.1
	z"/>
<g>
	<g>
		<path class="st1" d="M364,164.4l-8.1-12.6l-8.2,12.6h-3.3l10.4-15.7h2.2l10.4,15.7H364z"/>
		<path class="st1" d="M373.9,164.4c-0.9,0-1.6-0.1-2.3-0.3c-0.6-0.2-1.1-0.4-1.5-0.8c-0.4-0.3-0.7-0.7-0.9-1.2
			c-0.2-0.5-0.3-1-0.3-1.5v-11.9h3v11.9c0,1,0.7,1.5,2,1.5h9.7c1.3,0,2-0.5,2-1.5v-11.9h3v11.9c0,0.6-0.1,1.1-0.2,1.5
			c-0.1,0.5-0.3,0.9-0.6,1.2c-0.3,0.3-0.8,0.6-1.3,0.8c-0.6,0.2-1.3,0.3-2.2,0.3H373.9z"/>
		<path class="st1" d="M399.6,164.4v-13.4h-8.2v-2.3h19.2v2.3h-8v13.4H399.6z"/>
		<path class="st1" d="M417.7,164.4c-0.9,0-1.6-0.1-2.3-0.3c-0.6-0.2-1.1-0.4-1.5-0.8c-0.4-0.3-0.7-0.7-0.9-1.2
			c-0.2-0.5-0.3-1-0.3-1.5v-8.1c0-0.6,0.1-1.1,0.3-1.5c0.2-0.5,0.5-0.9,0.9-1.2c0.4-0.3,0.9-0.6,1.5-0.8c0.6-0.2,1.4-0.3,2.3-0.3
			H428c0.9,0,1.6,0.1,2.3,0.3c0.6,0.2,1.1,0.4,1.5,0.8c0.4,0.3,0.7,0.7,0.9,1.2c0.2,0.5,0.3,1,0.3,1.5v8.1c0,0.6-0.1,1.1-0.3,1.5
			c-0.2,0.5-0.5,0.9-0.9,1.2c-0.4,0.3-0.9,0.6-1.5,0.8c-0.6,0.2-1.4,0.3-2.3,0.3H417.7z M430,152.5c0-1-0.7-1.5-2-1.5h-10.3
			c-1.3,0-2,0.5-2,1.5v8.1c0,1,0.7,1.5,2,1.5H428c1.3,0,2-0.5,2-1.5V152.5z"/>
		<path class="st0" d="M436.7,164.4v-15.7h3v13.4h12.7v2.3H436.7z"/>
		<path class="st0" d="M459.9,164.4c-0.9,0-1.6-0.1-2.3-0.3c-0.6-0.2-1.1-0.4-1.5-0.8c-0.4-0.3-0.7-0.7-0.9-1.2
			c-0.2-0.5-0.3-1-0.3-1.5v-8.1c0-0.6,0.1-1.1,0.3-1.5c0.2-0.5,0.5-0.9,0.9-1.2c0.4-0.3,0.9-0.6,1.5-0.8c0.6-0.2,1.4-0.3,2.3-0.3
			h10.3c0.9,0,1.6,0.1,2.3,0.3c0.6,0.2,1.1,0.4,1.5,0.8c0.4,0.3,0.7,0.7,0.9,1.2c0.2,0.5,0.3,1,0.3,1.5v8.1c0,0.6-0.1,1.1-0.3,1.5
			c-0.2,0.5-0.5,0.9-0.9,1.2c-0.4,0.3-0.9,0.6-1.5,0.8c-0.6,0.2-1.4,0.3-2.3,0.3H459.9z M472.2,152.5c0-1-0.7-1.5-2-1.5h-10.3
			c-1.3,0-2,0.5-2,1.5v8.1c0,1,0.7,1.5,2,1.5h10.3c1.3,0,2-0.5,2-1.5V152.5z"/>
		<path class="st0" d="M484.4,164.4c-3.7,0-5.6-1.1-5.6-3.4v-8.9c0-2.3,1.9-3.4,5.6-3.4h12.3v2.3h-12.3c-1.8,0-2.6,0.4-2.6,1.1v8.9
			c0,0.7,0.9,1.1,2.6,1.1h6.9c1.8,0,2.6-0.3,2.6-1v-5.2h3v5.2c0,2.2-1.9,3.3-5.6,3.3H484.4z"/>
		<path class="st0" d="M500.7,164.4v-15.7h3v15.7H500.7z"/>
		<path class="st0" d="M507.9,164.4v-2.3h13.6c1.3,0,2-0.5,2-1.5v-2c0-1-0.6-1.4-2-1.4h-9.2c-0.9,0-1.6-0.1-2.3-0.3
			c-0.6-0.2-1.1-0.4-1.5-0.8c-0.4-0.3-0.7-0.7-0.9-1.2c-0.2-0.5-0.3-1-0.3-1.5v-0.9c0-0.6,0.1-1.1,0.3-1.5c0.2-0.5,0.5-0.9,0.9-1.2
			c0.4-0.3,0.9-0.6,1.5-0.8c0.6-0.2,1.4-0.3,2.3-0.3h13.3v2.3h-13.3c-1.3,0-2,0.5-2,1.5v1c0,1,0.7,1.4,2,1.4h9.2
			c0.9,0,1.6,0.1,2.3,0.3c0.6,0.2,1.1,0.4,1.5,0.8c0.4,0.3,0.7,0.7,0.9,1.2c0.2,0.5,0.3,1,0.3,1.5v1.9c0,0.6-0.1,1.1-0.3,1.5
			c-0.2,0.5-0.5,0.9-0.9,1.2c-0.4,0.3-0.9,0.6-1.5,0.8c-0.6,0.2-1.4,0.3-2.3,0.3H507.9z"/>
		<path class="st0" d="M536.6,164.4v-13.4h-8.2v-2.3h19.2v2.3h-8v13.4H536.6z"/>
		<path class="st0" d="M550.6,164.4v-15.7h3v15.7H550.6z"/>
		<path class="st0" d="M562.4,164.4c-0.9,0-1.6-0.1-2.3-0.3c-0.6-0.2-1.1-0.4-1.5-0.8c-0.4-0.3-0.7-0.7-0.9-1.2
			c-0.2-0.5-0.3-1-0.3-1.5v-8.1c0-0.6,0.1-1.1,0.3-1.5c0.2-0.5,0.5-0.9,0.9-1.2c0.4-0.3,0.9-0.6,1.5-0.8c0.6-0.2,1.4-0.3,2.3-0.3
			H575v2.3h-12.6c-1.3,0-2,0.5-2,1.5v8.1c0,1,0.7,1.5,2,1.5H575v2.3H562.4z"/>
		<path class="st0" d="M578.7,164.4v-2.3h13.6c1.3,0,2-0.5,2-1.5v-2c0-1-0.6-1.4-2-1.4h-9.2c-0.9,0-1.6-0.1-2.3-0.3
			c-0.6-0.2-1.1-0.4-1.5-0.8c-0.4-0.3-0.7-0.7-0.9-1.2c-0.2-0.5-0.3-1-0.3-1.5v-0.9c0-0.6,0.1-1.1,0.3-1.5c0.2-0.5,0.5-0.9,0.9-1.2
			c0.4-0.3,0.9-0.6,1.5-0.8c0.6-0.2,1.4-0.3,2.3-0.3h13.3v2.3h-13.3c-1.3,0-2,0.5-2,1.5v1c0,1,0.7,1.4,2,1.4h9.2
			c0.9,0,1.6,0.1,2.3,0.3c0.6,0.2,1.1,0.4,1.5,0.8c0.4,0.3,0.7,0.7,0.9,1.2c0.2,0.5,0.3,1,0.3,1.5v1.9c0,0.6-0.1,1.1-0.3,1.5
			c-0.2,0.5-0.5,0.9-0.9,1.2c-0.4,0.3-0.9,0.6-1.5,0.8c-0.6,0.2-1.4,0.3-2.3,0.3H578.7z"/>
	</g>
</g>
<rect x="350.1" y="157" class="st1" width="11.4" height="2.3"/>
</svg>
