<?xml version="1.0" standalone="no"?>
<!DOCTYPE svg PUBLIC "-//W3C//DTD SVG 20010904//EN"
 "http://www.w3.org/TR/2001/REC-SVG-20010904/DTD/svg10.dtd">
<svg version="1.0" xmlns="http://www.w3.org/2000/svg"
 width="378.000000pt" height="378.000000pt" viewBox="0 0 378.000000 378.000000"
 preserveAspectRatio="xMidYMid meet">
<metadata>
Created by potrace 1.11, written by Peter Selinger 2001-2013
</metadata>
<g transform="translate(0.000000,378.000000) scale(0.100000,-0.100000)"
fill="#000000" stroke="none">
<path d="M5 3768 c-3 -7 -4 -857 -3 -1888 l3 -1875 1885 0 1885 0 0 1885 0
1885 -1883 3 c-1501 2 -1884 0 -1887 -10z m2545 -1018 c20 -5 57 -23 82 -39
62 -40 88 -90 88 -173 0 -115 -59 -198 -205 -290 -128 -81 -248 -121 -353
-117 -64 3 -71 1 -158 -49 -252 -145 -571 -248 -829 -270 l-90 -7 -13 -40
c-19 -56 -16 -163 4 -216 48 -122 133 -210 259 -270 82 -38 255 -92 341 -105
43 -6 47 -5 40 11 -24 64 -25 155 -3 192 4 6 -12 15 -39 22 -61 15 -115 44
-159 83 -102 89 -83 181 63 304 89 74 134 99 246 140 146 52 262 68 441 61
238 -9 412 -64 510 -161 40 -41 46 -43 116 -49 181 -16 376 -95 477 -195 100
-98 121 -178 79 -298 -96 -275 -380 -450 -770 -473 -390 -24 -708 71 -885 264
l-58 64 -97 20 c-211 44 -361 109 -455 196 -104 96 -155 215 -156 362 l0 81
-29 6 c-16 3 -53 6 -82 6 -126 0 -327 49 -437 107 -144 75 -198 149 -198 270
0 95 39 173 135 269 111 110 252 185 457 239 174 46 279 58 498 59 228 1 337
-11 508 -55 l113 -29 57 24 c74 31 153 54 227 66 69 10 223 5 275 -10z"/>
<path d="M1214 2719 c-233 -17 -413 -59 -569 -133 -311 -148 -436 -406 -275
-566 106 -107 302 -173 555 -187 l110 -6 17 49 c51 146 279 311 503 365 50 12
96 23 103 25 6 2 12 18 12 36 0 86 112 237 233 313 26 17 47 33 47 36 0 6
-106 30 -215 49 -71 12 -313 31 -370 29 -22 -1 -90 -5 -151 -10z"/>
<path d="M2375 2723 c-92 -12 -295 -67 -295 -81 0 -4 31 -22 69 -40 38 -18 79
-44 92 -58 21 -22 14 -20 -51 15 -42 22 -94 47 -117 55 l-42 15 -86 -52 c-135
-80 -255 -214 -255 -284 0 -18 8 -21 94 -27 154 -11 226 -41 226 -96 0 -54
-80 -97 -151 -81 -42 9 -118 51 -138 75 -10 12 -21 12 -82 -6 -91 -25 -193
-68 -298 -124 -109 -57 -172 -106 -212 -162 l-32 -45 79 7 c188 17 431 85 644
180 136 61 266 136 253 145 -29 18 -34 52 -18 102 46 138 253 316 380 327 63
5 85 -7 85 -48 0 -56 -122 -188 -285 -307 -52 -37 -94 -71 -95 -75 0 -5 17 -8
38 -8 121 2 322 93 436 199 110 103 115 279 10 338 -61 34 -158 48 -249 36z"/>
<path d="M2371 2540 c-197 -109 -356 -315 -280 -363 13 -8 33 1 91 41 167 116
323 277 316 326 -5 34 -62 32 -127 -4z"/>
<path d="M1765 2191 l-30 -7 44 -32 c69 -50 157 -55 196 -11 18 19 18 21 1 37
-13 13 -36 17 -99 19 -45 1 -95 -2 -112 -6z"/>
<path d="M2055 1959 c-90 -12 -228 -51 -307 -87 -72 -33 -203 -133 -244 -188
-36 -47 -39 -108 -8 -151 30 -41 108 -91 171 -109 l54 -16 63 68 63 68 -31 21
c-25 16 -32 29 -34 61 -6 76 78 155 212 197 58 18 94 22 201 22 148 0 212 -13
281 -57 l47 -30 81 11 c45 7 104 13 131 14 l50 2 -35 33 c-53 50 -163 100
-270 123 -110 23 -322 32 -425 18z"/>
<path d="M2195 1784 c-231 -33 -385 -101 -385 -170 0 -47 60 -57 118 -19 43
28 115 55 148 55 40 0 74 -21 74 -46 0 -38 -40 -56 -138 -63 -95 -7 -119 -19
-200 -104 l-33 -34 68 -6 c226 -18 497 65 635 194 32 30 38 42 38 77 0 32 -4
42 -16 42 -33 0 -181 -43 -216 -63 -21 -11 -40 -18 -44 -15 -13 13 178 107
219 108 26 0 21 15 -10 29 -27 13 -203 23 -258 15z"/>
<path d="M2680 1740 c-133 -13 -135 -14 -135 -65 0 -60 -23 -88 -132 -161
-151 -100 -344 -151 -544 -141 l-106 4 -17 -34 c-19 -39 -21 -121 -5 -157 10
-22 20 -25 88 -32 42 -4 146 -8 231 -8 138 0 167 3 265 28 177 45 303 113 392
209 83 90 124 216 102 316 -12 58 -1 54 -139 41z"/>
<path d="M2842 1712 c16 -57 2 -157 -30 -226 -73 -154 -242 -274 -472 -333
-112 -29 -319 -40 -470 -25 -52 5 -97 8 -99 6 -2 -2 25 -32 61 -67 107 -108
306 -193 525 -226 173 -26 443 -8 599 40 250 77 447 263 483 456 24 123 -57
242 -218 322 -96 48 -183 70 -338 85 l-51 5 10 -37z"/>
<path d="M2015 1580 l-40 -19 35 0 c41 -1 107 16 115 29 10 17 -68 10 -110
-10z"/>
</g>
</svg>
